<svg fill="none" height="24" viewBox="0 0 24 24" width="24" xmlns="http://www.w3.org/2000/svg"><g fill="#000"><path d="m22 14.5c-.276 0-.5.224-.5.5 0 .07.015.136.041.197l-2.544 1.09c-.046-.046-.095-.092-.14-.138-.193-.197-.511-.2-.707-.006-.197.194-.2.51-.006.707.021.021.056.055.08.079 1.269-.806 2.506-1.43 3.777-1.43.276 0 .5.224.5.5s-.224.5-.5.5c-.955 0-1.968.489-3.028 1.144.897.82 2.196 1.857 3.027 1.857 1.424 0 2-1.764 2-2.5 0-1.495-.804-2.5-2-2.5z"/><path d="m23.034 14.811-4.104-2.784c-4.435.245-12.648 3.212-15.338 4.808 1.078 1.11 3.881 3.665 6.867 3.665 2.466 0 4.514-1.387 6.494-2.728 1.726-1.168 3.356-2.272 5.047-2.272.073 0 .141-.017.203-.045l.269.183c.229.157.539.096.694-.133.156-.228.096-.539-.132-.694z"/><path d="m4.093 15.439c-1.245-3.485-1.389-6.218-.426-8.12.684-1.35 1.892-2.265 3.691-2.798.266-.078.543.073.622.337.078.265-.073.543-.337.622-.972.287-2.348.837-3.084 2.291-.826 1.631-.674 4.068.444 7.237 3.584-1.621 9.481-3.535 13.237-3.927l-1.386-4.505c-.312-1.011-1.051-1.819-2.028-2.215-.968-.394-2.504-.861-4.326-.861-3.467 0-6.746 1.039-8.354 2.646-1.484 1.485-2.146 3.29-2.146 5.854 0 2.166.496 4.05.517 4.129.058.219.256.371.483.371h1.327c.367-.305.969-.666 1.766-1.061z"/></g></svg>